<?xml version="1.0" encoding="utf-8"?>
<!-- Generator: Adobe Illustrator 26.0.1, SVG Export Plug-In . SVG Version: 6.00 Build 0)  -->
<svg version="1.1" id="Layer_1" xmlns="http://www.w3.org/2000/svg" xmlns:xlink="http://www.w3.org/1999/xlink" x="0px" y="0px"
	 viewBox="0 0 576 432" style="enable-background:new 0 0 576 432;" xml:space="preserve">
<style type="text/css">
	.st0{fill:#7AC344;}
	.st1{fill:#1468B2;}
</style>
<path class="st0" d="M383.04,132.08h-34.57v86.88c8.71-5.71,17.01-11.91,24.69-18.69c3.38-2.98,6.66-6.13,9.89-9.36V132.08z"/>
<path class="st0" d="M227.54,229.38h-34.57v31.7c11.64,0.27,23.18-0.21,34.57-1.28V229.38z"/>
<path class="st1" d="M436.83,188.72c1.63,8.89,2.53,18.04,2.53,27.39c0,47.48-22,89.91-56.32,117.68v-96.7
	c-10.98,7.4-22.57,13.88-34.57,19.6v98.13v30.81c12.18-4.36,23.76-10,34.57-16.75C434,337.06,468,280.49,468,216.11
	c0-8.41-0.63-16.67-1.75-24.78l-20.62-13.54C442.8,181.54,439.84,185.16,436.83,188.72z"/>
<path class="st1" d="M192.96,368.88c10.82,6.75,22.39,12.39,34.57,16.75v-30.81v-70.37c-1.69,0.03-3.37,0.14-5.07,0.14
	c-9.74,0-19.59-0.48-29.51-1.39v50.59c-34.32-27.77-56.32-70.2-56.32-117.68c0-83.46,67.9-151.36,151.36-151.36
	c51.33,0,96.74,25.71,124.12,64.89l25.81-12.99C405.66,68.15,350.51,36.11,288,36.11c-99.25,0-180,80.75-180,180
	C108,280.49,142,337.06,192.96,368.88z"/>
<path class="st0" d="M244.8,197.68v60c11.78-1.81,23.35-4.27,34.57-7.47v-52.53H244.8z"/>
<path class="st1" d="M244.8,390.83c11.16,2.76,22.71,4.49,34.57,5.06V367.2v-87.99c-11.31,2.15-22.85,3.65-34.57,4.49v77.45V390.83z
	"/>
<path class="st0" d="M296.63,165.96v78.65c12.03-4.32,23.6-9.42,34.57-15.33v-63.32H296.63z"/>
<path class="st1" d="M296.63,395.89c11.86-0.56,23.41-2.3,34.57-5.06v-29.68v-96.93c-11.2,4.43-22.73,8.17-34.57,11.17v91.82V395.89
	z"/>
<path class="st0" d="M423.91,155.73c-1.18,1.83-2.39,3.63-3.61,5.43c-11.57,17.05-25.05,32.84-40.58,46.56
	C321.1,259.5,238.45,278.2,161.7,268.76c103.22,19.9,211.22-12.04,275.64-96.42c1.32-1.72,2.62-3.46,3.9-5.23l14.97,9.83l3.31-57.54
	l-51.49,25.91L423.91,155.73z"/>
</svg>
