<?xml version="1.0" encoding="utf-8"?>
<!-- Generator: Adobe Illustrator 26.0.1, SVG Export Plug-In . SVG Version: 6.00 Build 0)  -->
<svg version="1.1" id="Layer_1" xmlns="http://www.w3.org/2000/svg" xmlns:xlink="http://www.w3.org/1999/xlink" x="0px" y="0px"
	 viewBox="0 0 576 432" style="enable-background:new 0 0 576 432;" xml:space="preserve">
<style type="text/css">
	.st0{fill:#7AC344;}
	.st1{fill:#1468B2;}
</style>
<g>
	<g>
		<path class="st0" d="M107.69,330.05c-1.09,2.61-2.64,4.87-4.64,6.77c-2,1.9-4.39,3.4-7.16,4.49c-2.77,1.09-5.82,1.64-9.13,1.64H72
			v-42.49h14.75c3.32,0,6.36,0.54,9.13,1.61c2.77,1.07,5.16,2.56,7.16,4.46c2,1.9,3.55,4.15,4.64,6.74
			c1.09,2.59,1.64,5.38,1.64,8.38C109.33,324.64,108.78,327.44,107.69,330.05z M103.11,315.15c-0.83-2.06-2-3.85-3.52-5.37
			c-1.52-1.52-3.37-2.71-5.55-3.58c-2.19-0.87-4.61-1.31-7.28-1.31H76.8v33.63h9.96c2.67,0,5.1-0.42,7.28-1.27
			c2.19-0.85,4.04-2.03,5.55-3.55c1.52-1.52,2.69-3.29,3.52-5.31c0.83-2.02,1.24-4.23,1.24-6.62
			C104.35,319.42,103.94,317.21,103.11,315.15z"/>
		<path class="st0" d="M156.25,342.95h-5.16l-4.98-11.23h-23.13l-5.04,11.23h-4.92l19.36-42.79h4.49L156.25,342.95z M134.58,305.8
			l-9.71,21.67h19.36L134.58,305.8z"/>
		<path class="st0" d="M193.89,342.95l-12.32-16.51h-12.14v16.51h-4.8v-42.49h18.27c2.35,0,4.46,0.3,6.34,0.91
			c1.88,0.61,3.49,1.47,4.83,2.58c1.34,1.11,2.37,2.45,3.1,4.01c0.73,1.56,1.09,3.29,1.09,5.19c0,1.78-0.28,3.37-0.85,4.77
			c-0.57,1.4-1.37,2.61-2.4,3.64c-1.03,1.03-2.26,1.89-3.67,2.58c-1.42,0.69-2.95,1.17-4.61,1.46l13.05,17.35H193.89z M190.6,307.11
			c-1.91-1.48-4.58-2.22-8.03-2.22h-13.14v17.3h13.08c1.58,0,3.04-0.2,4.38-0.61c1.34-0.41,2.5-0.98,3.47-1.74
			c0.97-0.75,1.73-1.67,2.28-2.77c0.55-1.1,0.82-2.34,0.82-3.72C193.46,310.67,192.51,308.59,190.6,307.11z"/>
		<path class="st0" d="M213.73,300.46v42.49h-4.8v-42.49H213.73z"/>
		<path class="st0" d="M260.9,324.8c0,3.12-0.42,5.85-1.27,8.2c-0.85,2.35-2.05,4.31-3.61,5.89c-1.56,1.58-3.42,2.76-5.58,3.55
			c-2.17,0.79-4.58,1.18-7.25,1.18c-2.63,0-5.03-0.39-7.19-1.18c-2.17-0.79-4.03-1.96-5.58-3.52c-1.56-1.56-2.76-3.49-3.61-5.8
			c-0.85-2.31-1.27-4.96-1.27-7.95v-24.7h4.8v24.4c0,4.61,1.14,8.15,3.43,10.62c2.29,2.47,5.47,3.7,9.56,3.7
			c3.92,0,7.04-1.17,9.35-3.52c2.31-2.35,3.46-5.85,3.46-10.5v-24.7h4.8V324.8z"/>
		<path class="st0" d="M276.44,313.77c0.32,0.81,0.91,1.55,1.76,2.22c0.85,0.67,2.02,1.28,3.52,1.82c1.5,0.55,3.42,1.06,5.77,1.55
			c4.74,1.05,8.23,2.51,10.47,4.38c2.25,1.87,3.37,4.44,3.37,7.72c0,1.83-0.36,3.49-1.08,4.99c-0.72,1.5-1.71,2.78-2.97,3.83
			c-1.26,1.05-2.79,1.86-4.57,2.43c-1.78,0.57-3.72,0.85-5.83,0.85c-3.4,0-6.51-0.55-9.32-1.65c-2.81-1.1-5.49-2.79-8.04-5.09
			l2.97-3.52c2.23,2.02,4.47,3.53,6.74,4.52c2.27,0.99,4.88,1.49,7.83,1.49c2.87,0,5.17-0.67,6.89-2.01
			c1.72-1.34,2.58-3.1,2.58-5.29c0-1.01-0.16-1.91-0.49-2.71c-0.32-0.79-0.89-1.51-1.7-2.16c-0.81-0.65-1.94-1.24-3.38-1.76
			c-1.44-0.53-3.28-1.03-5.51-1.52c-2.43-0.53-4.55-1.13-6.36-1.82c-1.81-0.69-3.3-1.52-4.47-2.49c-1.18-0.97-2.05-2.11-2.62-3.4
			c-0.57-1.3-0.85-2.84-0.85-4.62c0-1.7,0.34-3.26,1.03-4.68c0.69-1.42,1.66-2.64,2.91-3.68c1.25-1.03,2.73-1.84,4.43-2.43
			c1.7-0.59,3.56-0.88,5.58-0.88c3.12,0,5.84,0.43,8.16,1.29s4.58,2.15,6.77,3.87l-2.79,3.7c-1.98-1.62-3.98-2.79-5.98-3.52
			c-2-0.73-4.1-1.09-6.28-1.09c-1.38,0-2.62,0.18-3.73,0.55c-1.11,0.36-2.06,0.85-2.85,1.46c-0.79,0.61-1.4,1.34-1.82,2.19
			c-0.43,0.85-0.64,1.76-0.64,2.73C275.95,312.04,276.11,312.96,276.44,313.77z"/>
		<path class="st0" d="M309.46,304.71v-4.25h33.14v3.22l-27.56,35.02h27.56v4.25h-34.05v-3.22l27.5-35.02H309.46z"/>
		<path class="st1" d="M382.45,341.7c-3.02,1.32-6.46,1.97-10.35,1.97c-3.32,0-6.34-0.55-9.07-1.64c-2.73-1.09-5.08-2.61-7.04-4.55
			c-1.96-1.94-3.49-4.25-4.58-6.92c-1.09-2.67-1.64-5.58-1.64-8.74v-0.12c0-3.04,0.56-5.88,1.67-8.53c1.11-2.65,2.66-4.98,4.64-6.98
			c1.98-2,4.33-3.58,7.04-4.74c2.71-1.15,5.69-1.73,8.92-1.73c1.9,0,3.63,0.13,5.19,0.39c1.56,0.26,3,0.64,4.34,1.12
			c1.33,0.49,2.59,1.09,3.76,1.82c1.17,0.73,2.31,1.56,3.4,2.49l-5.89,7.1c-0.81-0.69-1.62-1.29-2.43-1.82
			c-0.81-0.53-1.65-0.97-2.52-1.34c-0.87-0.36-1.81-0.65-2.82-0.85c-1.01-0.2-2.12-0.3-3.34-0.3c-1.7,0-3.29,0.36-4.76,1.06
			c-1.48,0.71-2.77,1.66-3.88,2.86c-1.11,1.2-1.98,2.6-2.61,4.2c-0.63,1.6-0.94,3.32-0.94,5.14v0.12c0,1.95,0.31,3.74,0.94,5.38
			c0.63,1.64,1.52,3.07,2.67,4.29c1.15,1.22,2.51,2.16,4.07,2.83c1.56,0.67,3.29,1,5.19,1c3.48,0,6.41-0.85,8.8-2.57v-6.11h-9.41
			v-8.07h18.45v18.45C388.06,338.8,385.46,340.39,382.45,341.7z"/>
		<path class="st1" d="M399.66,342.95v-42.49H409v42.49H399.66z"/>
		<path class="st1" d="M418.35,342.95v-7.1l23.37-27.19h-22.64v-8.19h34.66v7.1l-23.37,27.19h23.37v8.2H418.35z"/>
		<path class="st1" d="M494.23,342.95l-3.88-9.53h-17.97l-3.88,9.53h-9.53l18.21-42.79h8.62L504,342.95H494.23z M481.36,311.38
			l-5.65,13.78H487L481.36,311.38z"/>
	</g>
</g>
<path class="st0" d="M336.13,139.22h-18.34v46.08c4.62-3.03,9.02-6.32,13.09-9.91c1.79-1.58,3.53-3.25,5.24-4.97V139.22z"/>
<path class="st0" d="M253.65,190.83h-18.34v16.81c6.17,0.14,12.29-0.11,18.34-0.68V190.83z"/>
<path class="st1" d="M364.66,169.27c0.87,4.72,1.34,9.57,1.34,14.53c0,25.19-11.67,47.69-29.87,62.42v-51.29
	c-5.82,3.93-11.97,7.36-18.34,10.4v52.04v16.34c6.46-2.31,12.6-5.3,18.34-8.89c27.03-16.88,45.06-46.88,45.06-81.03
	c0-4.46-0.33-8.84-0.93-13.14l-10.93-7.18C367.83,165.46,366.26,167.38,364.66,169.27z"/>
<path class="st1" d="M235.32,264.82c5.74,3.58,11.87,6.57,18.34,8.89v-16.34v-37.32c-0.9,0.01-1.79,0.08-2.69,0.08
	c-5.17,0-10.39-0.26-15.65-0.74v26.83c-18.2-14.73-29.87-37.23-29.87-62.42c0-44.27,36.01-80.28,80.28-80.28
	c27.22,0,51.31,13.63,65.83,34.42l13.69-6.89c-17.12-25.73-46.37-42.72-79.52-42.72c-52.64,0-95.47,42.83-95.47,95.47
	C190.25,217.94,208.29,247.95,235.32,264.82z"/>
<path class="st0" d="M262.81,174.02v31.82c6.25-0.96,12.38-2.27,18.34-3.96v-27.86H262.81z"/>
<path class="st1" d="M262.81,276.47c5.92,1.46,12.05,2.38,18.34,2.68v-15.22v-46.67c-6,1.14-12.12,1.94-18.34,2.38v41.08V276.47z"/>
<path class="st0" d="M290.3,157.2v41.72c6.38-2.29,12.52-4.99,18.34-8.13V157.2H290.3z"/>
<path class="st1" d="M290.3,279.15c6.29-0.3,12.42-1.22,18.34-2.68v-15.74v-51.41c-5.94,2.35-12.06,4.33-18.34,5.92v48.7V279.15z"/>
<path class="st0" d="M357.81,151.77c-0.62,0.97-1.27,1.92-1.91,2.88c-6.13,9.04-13.29,17.42-21.52,24.7
	c-31.1,27.46-74.93,37.38-115.64,32.38c54.75,10.55,112.03-6.38,146.19-51.14c0.7-0.91,1.39-1.84,2.07-2.78l7.94,5.22l1.75-30.52
	l-27.31,13.74L357.81,151.77z"/>
</svg>
